<?xml version="1.0" encoding="UTF-8"?>
<svg width="1023px" height="1023px" viewBox="0 0 1023 1023" version="1.1" xmlns="http://www.w3.org/2000/svg" xmlns:xlink="http://www.w3.org/1999/xlink">
    <title>Slice 1</title>
    <g id="Page-1" stroke="none" stroke-width="1" fill="none" fill-rule="evenodd">
        <g id="buzztouchLogo">
            <path d="M0,819 C0,931.666077 91.333908,1023 204,1023 L819,1023 C931.666077,1023 1023,931.666077 1023,819 L1023,204 C1023,91.333923 931.666077,0 819,0 L204,0 C91.333908,0 0,91.333923 0,204 L0,819 Z" id="Path" fill="#D1D2D4"></path>
            <path d="M917.490417,193.389771 C923.761169,192.227295 924.374695,192.967041 923.402588,199.369141 C919.511963,224.991394 874.581238,521.45697 871.936218,545.879333 C871.020752,554.331848 918.320251,822.336853 923.781311,853.936829 C924.33728,857.154114 923.098999,858.196228 920.061218,857.985413 C907.298828,857.099792 175.419876,808.814087 172.439468,809.01062 C169.052368,809.234009 167.621994,807.693848 167.133194,804.556824 C162.759918,776.48999 97.927933,368.444641 94.628281,348.785645 C94.086151,345.555664 95.092636,344.579834 97.863434,344.072998 C128.762115,338.420593 891.016174,198.297546 917.490417,193.389771 Z" id="path1" fill="#FFFFFF" fill-rule="nonzero"></path>
            <polygon id="path2" fill="#BAB095" points="844 145 758 221 797 489"></polygon>
            <polyline id="path3" fill="#40585F" points="840 792 329 765 761 743 797 490"></polyline>
            <text id="t" fill="#2F302F" fill-rule="nonzero" font-family="Podkova" font-size="641.7408" font-weight="normal">
                <tspan x="497.1457" y="662">t</tspan>
            </text>
            <text id="b" fill="#2F302F" fill-rule="nonzero" font-family="Podkova" font-size="668.479986" font-weight="normal">
                <tspan x="162.841282" y="668">b</tspan>
            </text>
        </g>
    </g>
</svg>