<?xml version="1.0" encoding="UTF-8"?>
<svg width="1024px" height="1024px" viewBox="0 0 1024 1024" version="1.1" xmlns="http://www.w3.org/2000/svg" xmlns:xlink="http://www.w3.org/1999/xlink">
    <title>Artboard</title>
    <g id="Artboard" stroke="none" stroke-width="1" fill="none" fill-rule="evenodd">
        <g id="buzztouchLogo">
            <path d="M293.564855,-7.90691435e-15 L730.435145,1.18603715e-14 C832.51404,-6.89121741e-15 869.530315,10.6285325 906.848833,30.5866946 C944.167352,50.5448567 973.455143,79.8326484 993.413305,117.151167 C1013.37147,154.469685 1024,191.48596 1024,293.564855 L1024,730.435145 C1024,832.51404 1013.37147,869.530315 993.413305,906.848833 C973.455143,944.167352 944.167352,973.455143 906.848833,993.413305 C869.530315,1013.37147 832.51404,1024 730.435145,1024 L293.564855,1024 C191.48596,1024 154.469685,1013.37147 117.151167,993.413305 C79.8326484,973.455143 50.5448567,944.167352 30.5866946,906.848833 C10.6285325,869.530315 2.29707247e-15,832.51404 -3.95345717e-15,730.435145 L7.90691435e-15,293.564855 C-4.59414494e-15,191.48596 10.6285325,154.469685 30.5866946,117.151167 C50.5448567,79.8326484 79.8326484,50.5448567 117.151167,30.5866946 C154.469685,10.6285325 191.48596,4.59414494e-15 293.564855,-7.90691435e-15 Z" id="Rounded-Rectangle" fill="#D1D2D4"></path>
            <path d="M917.679286,193.457219 C923.948275,192.293132 924.561629,193.033903 923.589795,199.444875 C919.700264,225.102637 874.78217,521.979067 872.137894,546.435276 C871.222685,554.899505 918.508887,823.275922 923.968412,854.919691 C924.524224,858.141434 923.286292,859.184993 920.249365,858.973886 C907.490562,858.087037 175.817363,809.734416 172.837793,809.931221 C169.451645,810.15492 168.021673,808.612624 167.53301,805.471253 C163.160964,777.365523 98.3472049,368.754687 95.0484805,349.068447 C94.5065029,345.83399 95.512705,344.856807 98.282724,344.349269 C129.172719,338.689031 891.212486,198.371795 917.679286,193.457219 Z" id="path1" fill="#FFFFFF" fill-rule="nonzero"></path>
            <polygon id="path2" fill="#BAB095" points="844.17561 145 758.259512 221 797.221463 489"></polygon>
            <polyline id="path3" fill="#40585F" points="840.179512 793 329.678049 766 761.256585 744 797.221463 491"></polyline>
            <g id="t" transform="translate(509.421446, 319.195100)" fill="#2F302F" fill-rule="nonzero">
                <path d="M182.68305,107.1657 L102.46545,107.1657 L102.46545,219.03165 C102.46545,227.59655 102.622125,237.153725 102.935475,247.703175 C103.248825,258.252625 104.815575,268.2276 107.635725,277.6281 C110.455875,287.0286 115.20835,295.019025 121.89315,301.599375 C128.57795,308.179725 138.39625,311.8877 151.34805,312.7233 C159.70405,312.7233 166.9111,312.20105 172.9692,311.15655 C179.0273,310.11205 182.26525,309.5898 182.68305,309.5898 L192.3969,345.3117 C188.6367,346.774 184.4587,348.0274 179.8629,349.0719 C175.8938,350.1164 171.245775,350.952 165.918825,351.5787 C160.591875,352.2054 154.89935,352.51875 148.84125,352.51875 C134.00935,352.51875 120.691975,350.3253 108.889125,345.9384 C97.086275,341.5515 87.059075,334.97115 78.807525,326.19735 C70.555975,317.42355 64.23675,306.4563 59.84985,293.2956 C55.46295,280.1349 53.2695,264.78075 53.2695,247.23315 L53.2695,107.1657 L-5.68434189e-14,107.1657 L-5.68434189e-14,67.37025 L53.2695,67.37025 L53.2695,11.59395 L102.46545,-5.68434189e-14 L102.46545,67.37025 L182.68305,67.37025 L182.68305,107.1657 Z" id="Path"></path>
            </g>
            <g id="b" transform="translate(148.825313, 234.206103)" fill="#2F302F" fill-rule="nonzero">
                <path d="M14.0354685,0 L115.54781,34.5990618 L115.54781,158.95984 C125.99281,153.302132 137.689034,148.242835 150.636481,143.78195 C163.583929,139.321065 177.564996,137.090622 192.579683,137.090622 C213.252079,137.090622 232.346844,140.245882 249.863979,146.556403 C267.381114,152.866924 282.504603,162.115101 295.234447,174.300934 C307.96429,186.486767 317.86528,201.664657 324.937415,219.834605 C332.00955,238.004552 335.545618,258.948953 335.545618,282.667807 C335.545618,306.604264 332.00955,328.473483 324.937415,348.275461 C317.86528,368.07744 307.909889,385.050565 295.071244,399.194835 C282.232598,413.339106 266.891505,424.328116 249.047964,432.161866 C231.204422,439.995616 211.511246,443.912491 189.968434,443.912491 C170.601663,443.912491 153.19333,442.008454 137.743435,438.200381 C122.293539,434.392309 109.019685,430.094626 97.9218729,425.307335 C85.0832274,419.649627 73.6590089,413.339106 63.6492174,406.375773 L63.6492174,63.3228112 L0,41.4535929 L14.0354685,0 Z M189.315621,401.153273 C204.547912,401.153273 217.984969,398.270018 229.626792,392.503507 C241.268615,386.736997 250.952,378.631242 258.676948,368.186242 C266.401895,357.741243 272.222807,345.283404 276.139682,330.812727 C280.056557,316.342051 282.014994,300.293744 282.014994,282.667807 C282.014994,248.939161 274.616453,223.370672 259.81937,205.962339 C245.022287,188.554006 222.391454,179.84984 191.926871,179.84984 C179.958642,179.84984 169.296038,181.155465 159.939059,183.766715 C150.58208,186.377965 142.639528,189.206819 136.111403,192.253277 C128.495258,195.952548 121.640727,200.087027 115.54781,204.656714 L115.54781,384.180148 C120.987914,387.444211 127.298435,390.273065 134.479372,392.666711 C140.789893,394.842752 148.514841,396.80119 157.654215,398.542023 C166.79359,400.282856 177.347392,401.153273 189.315621,401.153273 Z" id="Shape"></path>
            </g>
        </g>
    </g>
</svg>